<?xml version="1.0" standalone="no"?>
<!DOCTYPE svg PUBLIC "-//W3C//DTD SVG 20010904//EN"
 "http://www.w3.org/TR/2001/REC-SVG-20010904/DTD/svg10.dtd">
<svg version="1.0" xmlns="http://www.w3.org/2000/svg"
 width="920.000000pt" height="590.000000pt" viewBox="0 0 920.000000 590.000000"
 preserveAspectRatio="xMidYMid meet">
<metadata>
Created by potrace 1.16, written by Peter Selinger 2001-2019
</metadata>
<g transform="translate(0.000000,590.000000) scale(0.100000,-0.100000)"
fill="#000000" stroke="none">
<path d="M4455 5894 c-11 -1 -74 -8 -140 -14 -239 -24 -500 -85 -745 -175 -68
-26 -126 -48 -129 -50 -2 -3 7 -9 20 -15 l24 -10 -25 4 c-46 9 -333 -135 -530
-267 -415 -278 -758 -654 -990 -1090 -175 -329 -306 -777 -325 -1117 -3 -52
-8 -128 -10 -169 -5 -87 10 -370 25 -473 139 -946 723 -1760 1570 -2187 336
-170 650 -265 1035 -312 199 -24 661 -11 788 22 21 6 50 12 65 14 162 22 454
105 637 181 224 94 451 221 639 358 77 55 144 104 148 107 5 3 13 30 17 60 12
81 44 149 121 261 39 56 70 106 70 112 0 13 -63 58 -94 68 -18 5 -18 6 -3 7
22 1 107 -58 107 -74 0 -6 -31 -57 -69 -112 -71 -102 -121 -206 -121 -251 0
-23 8 -18 77 49 380 364 640 778 798 1269 53 164 113 457 103 499 -1 8 11 24
29 35 18 12 34 27 37 34 3 7 9 95 12 195 19 532 -94 1031 -339 1490 -57 108
-194 317 -207 317 -13 0 -13 -89 1 -128 12 -36 -2 -73 -29 -71 -15 1 -15 2 0
6 23 6 30 31 19 67 -6 17 -11 41 -13 53 -2 12 -28 56 -58 97 l-55 76 -3 -43
c-4 -61 11 -92 58 -122 36 -23 40 -29 38 -63 l-1 -37 -4 35 c-3 29 -12 41 -43
60 -49 30 -51 36 -60 135 -4 44 -18 109 -31 144 -22 57 -37 75 -158 193 -260
251 -581 462 -926 608 -257 109 -632 197 -935 220 -123 9 -345 12 -395 4z
m380 -14 c325 -25 682 -109 956 -225 350 -150 682 -370 922 -612 106 -107 122
-128 148 -193 22 -53 28 -81 23 -106 -3 -18 0 -56 7 -84 11 -43 20 -55 56 -78
37 -23 43 -31 38 -52 -9 -36 -16 -41 -76 -49 -50 -7 -99 -25 -99 -37 0 -2 27
-16 60 -31 43 -18 59 -30 55 -40 -3 -8 -5 -19 -5 -24 0 -5 -27 -9 -60 -9 -70
0 -71 -3 -40 -90 11 -30 19 -76 20 -101 0 -35 10 -64 44 -125 24 -43 57 -94
75 -112 31 -34 39 -56 22 -66 -4 -3 -14 -34 -21 -68 -10 -47 -21 -69 -44 -90
-17 -16 -34 -28 -38 -28 -4 0 -30 14 -58 31 -40 25 -50 36 -50 58 0 18 -12 39
-35 61 -45 44 -47 87 -7 139 24 30 28 43 24 78 -4 41 -5 42 -57 58 -29 8 -65
15 -79 15 -42 0 -60 38 -53 118 5 64 4 70 -36 143 -29 54 -52 83 -77 99 -39
24 -47 44 -70 178 -8 48 -23 82 -61 139 -27 41 -49 81 -49 87 0 6 -5 27 -10
48 -9 30 -17 39 -53 51 -23 8 -69 30 -102 50 -59 35 -60 35 -79 17 -20 -19
-20 -20 0 -41 19 -21 19 -21 -15 -49 l-33 -28 36 -10 c38 -11 117 -64 151
-102 11 -13 40 -35 64 -50 l44 -28 -39 -20 c-22 -11 -46 -33 -52 -47 -12 -25
-16 -27 -54 -21 -73 12 -131 51 -169 114 -47 79 -65 93 -208 168 -101 54 -133
76 -159 111 -19 25 -32 46 -30 47 35 26 87 46 146 57 l73 12 -7 31 c-9 42 -10
44 -46 51 -23 6 -33 3 -40 -9 -6 -11 -23 -16 -53 -16 -43 0 -44 0 -35 29 7 26
5 31 -21 42 -17 6 -42 26 -57 44 -15 17 -93 76 -174 129 -158 105 -159 106
-205 52 -27 -30 -82 -43 -114 -25 -13 6 -65 14 -115 17 -81 4 -97 2 -126 -16
-69 -43 -184 -49 -290 -16 -38 12 -48 20 -53 44 -6 27 -9 28 -68 32 -51 2 -66
-1 -87 -18 -18 -16 -44 -23 -100 -27 -41 -3 -93 -11 -115 -19 -35 -11 -40 -17
-37 -40 5 -37 -39 -65 -117 -74 -82 -9 -117 -36 -102 -76 9 -25 8 -29 -17 -42
-16 -8 -56 -18 -89 -21 -33 -4 -66 -11 -72 -15 -7 -4 -15 -32 -18 -62 -5 -47
-10 -58 -34 -72 -16 -9 -54 -46 -86 -81 -70 -79 -138 -130 -180 -138 -18 -4
-33 -4 -33 -2 0 3 12 23 26 44 14 22 24 50 22 63 -2 19 -10 23 -43 26 -37 3
-44 8 -73 52 -18 27 -32 55 -32 64 0 22 110 116 136 116 16 0 30 13 48 47 22
39 25 54 20 94 l-7 49 81 36 80 36 7 60 c7 58 6 61 -21 85 -16 13 -38 27 -48
32 -36 14 324 131 542 176 272 55 549 74 807 55z m268 -1115 c28 -19 86 -46
127 -60 89 -30 141 -65 233 -154 63 -62 67 -68 67 -110 0 -37 -6 -51 -32 -79
l-33 -33 -11 -157 c-11 -151 -11 -158 9 -188 15 -22 38 -38 76 -51 l55 -20
-94 -31 c-52 -18 -104 -32 -116 -32 -11 0 -50 19 -86 42 -50 32 -68 49 -72 70
-4 18 -18 36 -40 49 -35 20 -37 26 -52 134 -4 36 -15 59 -38 84 -47 51 -173
149 -225 176 -62 31 -128 103 -137 149 -3 20 -10 39 -14 41 -9 5 -60 -55 -60
-69 0 -5 -7 -32 -16 -62 l-15 -54 -41 23 c-22 12 -51 38 -64 58 l-25 36 21 53
c14 35 19 63 14 86 -6 33 -5 34 41 54 26 11 62 20 81 20 27 0 35 -5 40 -25 5
-21 10 -23 37 -18 18 3 45 21 62 40 39 43 93 61 183 62 66 1 77 -2 125 -34z
m-1489 -6 c28 -13 46 -70 46 -145 0 -87 68 -164 318 -357 69 -53 114 -82 116
-75 18 59 15 73 -24 101 -28 20 -41 38 -46 61 -3 19 -19 47 -35 62 l-29 28 22
23 c16 17 32 23 64 23 38 0 45 -4 64 -34 11 -19 37 -45 56 -57 44 -27 55 -54
63 -148 5 -60 10 -76 27 -88 18 -12 24 -11 46 7 19 15 28 33 33 70 6 43 10 50
29 50 20 0 23 -7 32 -72 l9 -71 40 -12 c30 -9 48 -9 75 0 33 11 36 10 58 -16
l22 -27 -33 -34 c-18 -18 -70 -63 -115 -101 -112 -92 -168 -177 -177 -269 -6
-59 -4 -70 17 -102 19 -30 32 -37 77 -47 30 -6 74 -19 98 -30 41 -17 43 -21
43 -59 0 -26 9 -54 24 -78 30 -46 92 -107 99 -95 3 4 10 51 17 103 7 55 21
109 32 129 19 34 19 34 -2 56 -18 19 -22 40 -27 130 -7 114 -3 125 44 125 38
0 155 -60 187 -96 27 -30 40 -36 106 -47 67 -12 83 -19 149 -71 91 -70 145
-130 172 -190 18 -42 19 -48 4 -75 -16 -32 -89 -71 -132 -71 -35 0 -122 -46
-165 -88 -41 -39 -42 -40 -29 -60 7 -11 14 -11 42 3 19 10 44 26 55 37 14 12
32 18 50 16 25 -2 29 -8 32 -35 4 -39 29 -49 97 -40 40 6 43 5 49 -20 4 -14 6
-26 4 -28 -2 -1 -30 -17 -63 -35 -33 -18 -72 -44 -87 -58 -24 -22 -31 -24 -53
-14 -21 10 -32 9 -54 -3 -29 -14 -83 -90 -96 -133 -4 -13 -17 -27 -30 -32 -53
-20 -125 -175 -125 -267 0 -46 -4 -54 -37 -85 -21 -18 -64 -51 -95 -73 -94
-65 -137 -178 -98 -255 11 -22 23 -60 26 -84 6 -41 5 -45 -17 -48 -20 -3 -34
10 -83 81 -47 66 -68 88 -103 103 -64 28 -142 34 -181 14 -38 -20 -79 -20
-112 -1 -30 17 -101 19 -170 4 -46 -10 -54 -16 -96 -74 -51 -72 -65 -130 -56
-228 5 -56 6 -59 64 -107 98 -82 187 -92 226 -27 26 46 90 65 128 40 24 -16
26 -21 21 -69 -3 -28 -13 -66 -22 -84 -9 -17 -15 -43 -13 -58 3 -26 6 -27 73
-33 79 -6 137 -23 178 -51 32 -23 35 -53 12 -119 -22 -61 -12 -89 44 -131 41
-31 60 -37 137 -48 49 -6 90 -13 93 -15 2 -3 31 21 65 51 33 31 84 66 111 79
l50 22 68 -25 c66 -24 70 -24 103 -9 21 10 75 19 141 23 60 3 136 12 170 20
61 13 61 13 142 -22 104 -45 205 -64 340 -64 l108 0 62 -73 62 -73 87 12 c122
17 260 49 312 73 59 27 78 26 123 -8 l37 -28 -67 -94 c-74 -105 -118 -198
-128 -275 l-7 -51 -139 -103 c-256 -187 -598 -358 -899 -449 -193 -58 -440
-107 -451 -89 -13 20 -11 46 7 79 8 17 14 48 12 72 -3 40 -5 42 -39 47 -30 4
-53 23 -143 117 -66 69 -132 127 -169 150 -34 20 -81 51 -104 67 l-42 31 -1
68 c0 97 23 139 91 163 34 13 55 27 65 46 13 25 36 207 27 217 -2 3 -49 4
-106 4 -90 -1 -112 3 -192 31 l-90 32 -37 75 c-67 135 -177 207 -474 309 -150
52 -152 53 -235 129 -47 42 -107 87 -135 99 -69 32 -89 67 -89 157 0 64 -5 80
-52 180 -29 61 -66 163 -84 228 -31 117 -32 118 -58 112 -14 -4 -27 -8 -29
-10 -5 -5 28 -165 45 -220 9 -27 25 -60 36 -72 36 -40 10 -36 -35 5 -48 45
-64 87 -156 402 l-48 165 12 135 c7 74 17 166 23 203 18 104 90 256 168 354
l34 41 -9 74 c-12 91 0 221 28 308 63 201 74 312 39 405 -24 63 -26 65 -199
135 -83 34 -118 54 -127 71 -16 30 -8 37 17 14 11 -10 36 -18 56 -19 36 -1 36
0 61 68 20 53 35 74 65 96 33 24 43 27 76 19 70 -16 78 -13 101 42 l21 52 54
-6 c38 -4 60 -1 73 8 22 17 103 19 137 4z m3510 -217 c201 -305 343 -658 410
-1016 41 -216 50 -320 50 -566 1 -273 -4 -307 -42 -321 -18 -6 -47 -39 -86
-100 -53 -81 -62 -90 -84 -84 -13 3 -37 9 -53 12 -46 9 -123 99 -168 197 -86
185 -114 336 -110 576 3 151 2 157 -25 220 -16 36 -37 89 -47 119 l-19 54 26
61 c27 62 36 134 34 276 0 36 2 97 6 137 6 80 16 90 72 74 l32 -10 0 64 c0 61
-2 67 -51 131 -47 63 -50 68 -31 75 26 10 36 57 23 106 -11 40 -15 93 -6 93 3
0 34 -44 69 -98z m-769 -127 c141 -59 149 -67 140 -134 -8 -60 -5 -60 -122 -5
-39 19 -76 34 -82 34 -25 0 -8 -39 34 -77 25 -22 45 -45 45 -52 0 -21 -41 -11
-80 20 -31 26 -43 45 -60 102 -12 39 -39 100 -61 136 l-39 65 22 12 c21 11 27
9 58 -21 21 -20 79 -52 145 -80z m-543 42 l28 -22 -14 -53 c-14 -50 -76 -142
-96 -142 -21 0 -61 25 -74 45 -8 13 -18 46 -22 74 -6 47 -5 51 14 51 11 0 30
13 42 29 18 27 37 36 80 40 8 0 27 -9 42 -22z m-1247 -146 c11 -4 66 -30 123
-59 97 -49 105 -56 124 -99 24 -54 47 -75 104 -98 28 -11 47 -27 62 -54 27
-48 27 -63 3 -85 -11 -10 -22 -35 -26 -56 -6 -33 -10 -39 -38 -43 -20 -3 -52
4 -87 18 -30 13 -82 28 -114 35 l-60 12 42 35 c39 32 42 38 42 84 0 70 -31
114 -90 129 -87 22 -138 51 -175 98 l-35 46 27 28 c27 28 33 28 98 9z m890
-1042 c52 -44 95 -82 95 -84 0 -2 3 -10 6 -19 5 -14 -3 -16 -53 -16 -59 0 -60
1 -99 48 -49 58 -66 96 -58 128 3 13 8 24 11 24 2 0 46 -36 98 -81z m-854
-1498 c57 -16 124 -32 149 -36 51 -7 130 -34 130 -44 0 -20 -30 -39 -69 -44
-37 -5 -51 -1 -85 22 -74 51 -160 88 -235 101 -49 8 -69 15 -60 21 24 15 62
10 170 -20z m473 -91 c14 -5 26 -16 26 -24 0 -9 15 -23 33 -33 l32 -17 -30 -7
c-85 -19 -215 6 -215 42 0 11 9 21 23 24 12 3 40 9 62 14 22 5 41 9 42 10 1 1
13 -3 27 -9z"/>
</g>
</svg>
